<svg width="26" height="26" viewBox="0 0 26 26" fill="none" xmlns="http://www.w3.org/2000/svg">
<g clip-path="url(#clip0_1_247)">
<path d="M25.5555 12.999C25.5555 6.00836 19.8347 0.341309 12.7778 0.341309C5.7208 0.341309 0 6.00836 0 12.999C0 19.3168 4.67262 24.5534 10.7812 25.503V16.6579H7.53689V12.999H10.7812V10.2104C10.7812 7.03803 12.6889 5.28573 15.6076 5.28573C17.0052 5.28573 18.4679 5.53295 18.4679 5.53295V8.64793H16.8567C15.2694 8.64793 14.7743 9.62371 14.7743 10.6257V12.999H18.3181L17.7516 16.6579H14.7743V25.503C20.8829 24.5534 25.5555 19.3168 25.5555 12.999Z" fill="#009FE3"/>
</g>
<defs>
<clipPath id="clip0_1_247">
<rect width="25.5555" height="25.3154" fill="white" transform="translate(0 0.341309)"/>
</clipPath>
</defs>
</svg>
