<svg width="26" height="26" viewBox="0 0 26 26" fill="none" xmlns="http://www.w3.org/2000/svg">
<g clip-path="url(#clip0_1_251)">
<path d="M13.0742 2.62069C16.4883 2.62069 16.8926 2.63552 18.2352 2.69485C19.4831 2.74924 20.1569 2.95691 20.6061 3.12996C21.2001 3.3574 21.6293 3.63429 22.0736 4.07435C22.5228 4.51934 22.7973 4.93962 23.0269 5.52801C23.2016 5.973 23.4112 6.64544 23.4661 7.8766C23.526 9.2116 23.541 9.6121 23.541 12.9891C23.541 16.3711 23.526 16.7716 23.4661 18.1017C23.4112 19.3378 23.2016 20.0053 23.0269 20.4503C22.7973 21.0387 22.5178 21.4639 22.0736 21.9039C21.6243 22.3489 21.2001 22.6209 20.6061 22.8483C20.1569 23.0214 19.4781 23.229 18.2352 23.2834C16.8876 23.3428 16.4833 23.3576 13.0742 23.3576C9.66016 23.3576 9.25586 23.3428 7.9132 23.2834C6.66537 23.229 5.99154 23.0214 5.54232 22.8483C4.94836 22.6209 4.5191 22.344 4.07487 21.9039C3.62566 21.4589 3.35113 21.0387 3.12153 20.4503C2.94684 20.0053 2.7372 19.3328 2.6823 18.1017C2.6224 16.7667 2.60743 16.3662 2.60743 12.9891C2.60743 9.60715 2.6224 9.20665 2.6823 7.8766C2.7372 6.6405 2.94684 5.973 3.12153 5.52801C3.35113 4.93962 3.63065 4.5144 4.07487 4.07435C4.52409 3.62935 4.94836 3.3574 5.54232 3.12996C5.99154 2.95691 6.67036 2.74924 7.9132 2.69485C9.25586 2.63552 9.66016 2.62069 13.0742 2.62069ZM13.0742 0.341309C9.60525 0.341309 9.17101 0.356142 7.80838 0.415475C6.45074 0.474808 5.51737 0.692362 4.70877 1.00386C3.86524 1.33019 3.15148 1.76036 2.44271 2.46741C1.72896 3.16952 1.29471 3.87657 0.965284 4.70723C0.650831 5.51317 0.431213 6.43283 0.371318 7.77772C0.311422 9.13249 0.296448 9.56265 0.296448 12.999C0.296448 16.4354 0.311422 16.8656 0.371318 18.2154C0.431213 19.5603 0.650831 20.4849 0.965284 21.2859C1.29471 22.1215 1.72896 22.8285 2.44271 23.5306C3.15148 24.2327 3.86524 24.6679 4.70378 24.9892C5.51737 25.3007 6.44575 25.5183 7.80339 25.5776C9.16602 25.637 9.60026 25.6518 13.0692 25.6518C16.5382 25.6518 16.9724 25.637 18.3351 25.5776C19.6927 25.5183 20.6261 25.3007 21.4347 24.9892C22.2732 24.6679 22.987 24.2327 23.6957 23.5306C24.4045 22.8285 24.8437 22.1215 25.1682 21.2908C25.4826 20.4849 25.7023 19.5652 25.7621 18.2203C25.822 16.8705 25.837 16.4403 25.837 13.004C25.837 9.5676 25.822 9.13743 25.7621 7.78761C25.7023 6.44272 25.4826 5.51812 25.1682 4.71712C24.8537 3.87657 24.4195 3.16952 23.7057 2.46741C22.997 1.7653 22.2832 1.33019 21.4447 1.00881C20.6311 0.697307 19.7027 0.479752 18.345 0.420419C16.9774 0.356142 16.5432 0.341309 13.0742 0.341309Z" fill="white"/>
<path d="M13.0743 6.49707C9.45063 6.49707 6.51074 9.40933 6.51074 12.999C6.51074 16.5886 9.45063 19.5009 13.0743 19.5009C16.698 19.5009 19.6379 16.5886 19.6379 12.999C19.6379 9.40933 16.698 6.49707 13.0743 6.49707ZM13.0743 17.2166C10.7234 17.2166 8.81673 15.3278 8.81673 12.999C8.81673 10.6702 10.7234 8.78139 13.0743 8.78139C15.4252 8.78139 17.3319 10.6702 17.3319 12.999C17.3319 15.3278 15.4252 17.2166 13.0743 17.2166Z" fill="white"/>
<path d="M21.4297 6.24011C21.4297 7.08066 20.7409 7.75805 19.8973 7.75805C19.0488 7.75805 18.365 7.07571 18.365 6.24011C18.365 5.39955 19.0538 4.72217 19.8973 4.72217C20.7409 4.72217 21.4297 5.4045 21.4297 6.24011Z" fill="white"/>
</g>
<defs>
<clipPath id="clip0_1_251">
<rect width="25.5555" height="25.3154" fill="white" transform="translate(0.296448 0.341309)"/>
</clipPath>
</defs>
</svg>
