<svg width="26" height="26" viewBox="0 0 26 26" fill="none" xmlns="http://www.w3.org/2000/svg">
<g clip-path="url(#clip0_1_256)">
<path d="M24.1083 0.341309H2.33118C1.28799 0.341309 0.444458 1.15714 0.444458 2.1658V23.8273C0.444458 24.836 1.28799 25.6567 2.33118 25.6567H24.1083C25.1515 25.6567 26 24.836 26 23.8322V2.1658C26 1.15714 25.1515 0.341309 24.1083 0.341309ZM8.02627 21.9138H4.23287V9.82965H8.02627V21.9138ZM6.12957 8.18316C4.91169 8.18316 3.9284 7.20911 3.9284 6.00761C3.9284 4.80612 4.91169 3.83207 6.12957 3.83207C7.34246 3.83207 8.32575 4.80612 8.32575 6.00761C8.32575 7.20416 7.34246 8.18316 6.12957 8.18316ZM22.2216 21.9138H18.4332V16.0398C18.4332 14.6406 18.4082 12.8359 16.4616 12.8359C14.49 12.8359 14.1905 14.3637 14.1905 15.941V21.9138H10.4071V9.82965H14.0408V11.4811H14.0907C14.5948 10.5318 15.8327 9.52804 17.6745 9.52804C21.5128 9.52804 22.2216 12.0299 22.2216 15.2833V21.9138Z" fill="#FFFCFC"/>
</g>
<defs>
<clipPath id="clip0_1_256">
<rect width="25.5555" height="25.3154" fill="white" transform="translate(0.444458 0.341309)"/>
</clipPath>
</defs>
</svg>
