<svg width="26" height="26" viewBox="0 0 26 26" fill="none" xmlns="http://www.w3.org/2000/svg">
<g clip-path="url(#clip0_1_249)">
<path d="M8.18771 23.2839C17.8289 23.2839 23.1038 15.3694 23.1038 8.50799C23.1038 8.2855 23.0988 8.05805 23.0888 7.83555C24.1149 7.10046 25.0004 6.18994 25.7037 5.14678C24.7481 5.56797 23.7334 5.84304 22.6945 5.96261C23.7884 5.31303 24.6075 4.29257 25 3.09039C23.9708 3.69458 22.8453 4.12078 21.6717 4.35073C20.881 3.51843 19.8355 2.96735 18.6969 2.78269C17.5583 2.59803 16.39 2.79007 15.3726 3.32913C14.3553 3.86819 13.5455 4.72423 13.0685 5.76491C12.5915 6.80559 12.4739 7.97295 12.7338 9.08649C10.6499 8.9829 8.61127 8.44665 6.75002 7.51251C4.88877 6.57836 3.24648 5.26717 1.92959 3.66395C1.26028 4.80707 1.05548 6.15976 1.35679 7.4471C1.65811 8.73444 2.44293 9.85982 3.55177 10.5945C2.71932 10.5684 1.90511 10.3463 1.1764 9.94682V10.0111C1.17566 11.2107 1.59432 12.3736 2.36121 13.302C3.1281 14.2304 4.1959 14.8671 5.38309 15.1038C4.61195 15.3129 3.80262 15.3433 3.0177 15.1928C3.3527 16.2245 4.0045 17.1269 4.88211 17.7739C5.75973 18.421 6.81938 18.7805 7.91319 18.8023C6.05623 20.2472 3.76236 21.031 1.40101 21.0273C0.982249 21.0266 0.563896 21.0012 0.148193 20.9511C2.54707 22.4757 5.3376 23.2854 8.18771 23.2839Z" fill="white"/>
</g>
<defs>
<clipPath id="clip0_1_249">
<rect width="25.5555" height="25.3154" fill="white" transform="translate(0.148193 0.341309)"/>
</clipPath>
</defs>
</svg>
